<?xml version="1.0" encoding="utf-8"?>
<svg viewBox="-239 346 132 102" style="enable-background:new -239 346 132 102;" xmlns="http://www.w3.org/2000/svg">
  <defs>
    <style type="text/css">
	.st0{fill:#2887C2;}
	.st1{fill:#F3714E;}
	.st2{fill:#0A486A;}
</style>
  </defs>
  <path class="st0" d="M -189.371 424.626 L -189.371 424.626 C -189.748 424.626 -190 424.374 -190 423.997 C -190 423.935 -189.874 416.009 -189.371 408.271 C -188.553 394.683 -187.42 391.915 -185.911 391.915 C -185.597 391.915 -185.282 392.041 -185.093 392.293 C -182.514 394.872 -182.452 418.462 -182.452 423.368 L -171.129 423.368 C -171.129 421.921 -171.002 418.21 -170.688 414.498 C -169.933 405.691 -168.549 404.497 -167.354 404.497 C -166.222 404.497 -165.027 405.503 -164.272 412.297 C -163.769 408.019 -162.825 404.497 -161.063 404.497 C -157.667 404.497 -157.289 418.147 -157.289 423.997 C -157.289 424.374 -157.541 424.626 -157.918 424.626 C -158.296 424.626 -158.548 424.374 -158.548 423.997 C -158.548 413.241 -159.869 405.755 -161.063 405.755 C -162.259 405.755 -163.579 413.241 -163.579 423.997 C -163.579 424.374 -163.831 424.626 -164.209 424.626 L -164.209 424.626 C -164.587 424.626 -164.838 424.374 -164.838 423.997 C -164.963 411.29 -166.536 405.755 -167.354 405.755 C -168.172 405.755 -169.745 411.29 -169.87 423.997 C -169.87 424.374 -170.122 424.626 -170.499 424.626 L -183.08 424.626 C -183.458 424.626 -183.71 424.374 -183.71 423.997 C -183.646 406.069 -184.716 394.431 -185.911 393.237 C -187.107 394.431 -188.49 406.069 -188.742 423.997 C -188.742 424.374 -188.994 424.626 -189.371 424.626 Z" style=""/>
  <path class="st1" d="M -176.79 424.626 L -176.79 424.626 C -177.168 424.626 -177.419 424.374 -177.419 423.997 C -177.293 420.915 -176.664 410.787 -173.33 410.787 C -172.827 410.787 -172.386 411.039 -172.01 411.354 C -170.059 413.366 -169.87 420.915 -169.87 423.368 L -158.548 423.368 C -158.548 421.607 -158.421 416.448 -158.107 411.354 C -157.352 399.779 -156.031 398.206 -154.773 398.206 C -153.578 398.206 -152.446 399.527 -151.691 408.586 C -150.935 399.527 -149.678 398.206 -148.482 398.206 C -147.224 398.206 -145.841 399.779 -145.086 411.354 C -144.708 417.581 -144.708 423.935 -144.708 423.997 C -144.708 424.374 -144.96 424.626 -145.337 424.626 C -145.714 424.626 -145.966 424.374 -145.966 423.997 C -145.966 411.101 -147.098 399.904 -148.482 399.464 C -149.804 399.904 -150.999 411.101 -150.999 423.997 C -150.999 424.374 -151.25 424.626 -151.628 424.626 L -151.628 424.626 C -152.005 424.626 -152.257 424.374 -152.257 423.997 C -152.319 409.466 -153.641 399.967 -154.773 399.464 C -155.842 399.967 -157.164 409.466 -157.289 423.997 C -157.289 424.374 -157.541 424.626 -157.918 424.626 L -170.499 424.626 C -170.877 424.626 -171.129 424.374 -171.129 423.997 C -171.065 421.292 -171.38 413.869 -172.953 412.233 C -173.079 412.108 -173.204 412.045 -173.33 412.045 C -174.777 412.045 -175.972 418.21 -176.16 423.997 C -176.16 424.374 -176.413 424.626 -176.79 424.626 Z" style=""/>
  <path class="st1" d="M -139.047 424.626 L -139.047 424.626 C -139.424 424.626 -139.675 424.374 -139.675 423.997 C -139.55 420.915 -138.921 410.787 -135.587 410.787 C -135.084 410.787 -134.644 411.039 -134.266 411.354 C -133.636 412.108 -133.26 412.926 -133.071 413.869 C -133.008 413.051 -133.008 412.171 -132.945 411.354 C -132.19 399.779 -130.869 398.206 -129.611 398.206 C -128.415 398.206 -127.284 399.527 -126.528 408.586 C -125.774 399.527 -124.516 398.206 -123.32 398.206 C -122.063 398.206 -120.679 399.779 -119.923 411.354 C -119.546 417.581 -119.546 423.935 -119.546 423.997 C -119.546 424.374 -119.798 424.626 -120.175 424.626 C -120.552 424.626 -120.804 424.374 -120.804 423.997 C -120.804 411.101 -121.936 399.904 -123.32 399.464 C -124.641 399.904 -125.837 411.101 -125.837 423.997 C -125.837 424.374 -126.088 424.626 -126.466 424.626 L -126.466 424.626 C -126.843 424.626 -127.094 424.374 -127.094 423.997 C -127.158 409.466 -128.478 399.967 -129.611 399.464 C -130.68 399.967 -132.001 409.34 -132.064 423.62 C -132.064 423.808 -132.064 423.935 -132.064 423.997 C -132.064 424.374 -132.316 424.626 -132.693 424.626 L -132.693 424.626 C -133.071 424.626 -133.323 424.374 -133.323 423.997 C -133.323 423.997 -133.323 423.935 -133.323 423.745 C -133.323 420.852 -133.574 413.807 -135.147 412.233 C -135.272 412.108 -135.398 411.982 -135.587 411.982 C -137.034 411.982 -138.229 418.147 -138.418 423.935 C -138.418 424.374 -138.669 424.626 -139.047 424.626 Z" style=""/>
  <path class="st0" d="M -145.337 424.626 L -145.337 424.626 C -145.714 424.626 -145.966 424.374 -145.966 423.997 C -145.966 423.935 -145.841 416.009 -145.337 408.271 C -144.52 394.683 -143.387 391.915 -141.877 391.915 C -141.563 391.915 -141.249 392.041 -141.059 392.293 C -138.481 394.872 -138.418 418.462 -138.418 423.368 L -120.804 423.368 C -120.804 421.103 -120.679 413.051 -120.364 405.125 C -119.483 385.625 -117.974 385.625 -117.03 385.625 C -116.086 385.625 -114.577 385.625 -113.696 405.125 C -113.633 406.635 -113.57 408.208 -113.507 409.655 C -112.941 406.698 -112.06 404.497 -110.739 404.497 C -107.342 404.497 -106.965 418.147 -106.965 423.997 C -106.965 424.374 -107.217 424.626 -107.594 424.626 C -107.972 424.626 -108.223 424.374 -108.223 423.997 C -108.223 413.241 -109.544 405.755 -110.739 405.755 C -111.935 405.755 -113.256 413.241 -113.256 423.997 C -113.256 424.374 -113.507 424.626 -113.884 424.626 L -113.884 424.626 C -114.262 424.626 -114.514 424.374 -114.514 423.997 C -114.577 407.139 -115.52 389.022 -117.03 387.009 C -118.539 389.085 -119.483 407.139 -119.546 423.997 C -119.546 424.374 -119.798 424.626 -120.175 424.626 L -139.047 424.626 C -139.424 424.626 -139.675 424.374 -139.675 423.997 C -139.613 406.069 -140.682 394.431 -141.877 393.237 C -143.073 394.431 -144.457 406.069 -144.708 423.997 C -144.708 424.374 -144.96 424.626 -145.337 424.626 Z" style=""/>
  <path class="st2" d="M -107.594 424.626 L -189.371 424.626 C -189.748 424.626 -190 424.374 -190 423.997 C -190 423.62 -189.748 423.368 -189.371 423.368 L -107.594 423.368 C -107.217 423.368 -106.965 423.62 -106.965 423.997 C -106.965 424.374 -107.217 424.626 -107.594 424.626 Z" style=""/>
  <path class="st2" d="M -151.628 424.626 C -152.005 424.626 -152.257 424.374 -152.257 423.997 C -152.319 401.981 -153.012 366.942 -154.773 362.098 C -156.534 366.942 -157.226 401.981 -157.289 423.997 C -157.289 424.374 -157.541 424.626 -157.918 424.626 L -176.79 424.626 C -177.168 424.626 -177.419 424.374 -177.419 423.997 C -177.356 398.395 -178.488 382.983 -179.621 380.781 C -180.816 382.983 -182.199 398.395 -182.452 423.997 C -182.452 424.374 -182.703 424.626 -183.08 424.626 C -183.458 424.626 -183.71 424.374 -183.71 423.997 C -183.71 423.871 -183.583 412.863 -183.08 401.981 C -182.074 379.334 -180.564 379.334 -179.621 379.334 C -179.369 379.334 -179.055 379.46 -178.866 379.649 C -176.224 382.291 -176.16 415.191 -176.16 423.368 L -158.548 423.368 C -158.548 420.286 -158.485 406.321 -158.107 392.544 C -157.226 360.463 -155.842 360.463 -154.773 360.463 C -153.703 360.463 -152.383 360.463 -151.502 390.091 C -150.621 373.044 -149.363 373.044 -148.482 373.044 C -147.476 373.044 -145.904 373.044 -145.086 398.835 C -144.708 411.29 -144.708 423.871 -144.708 423.997 C -144.708 424.374 -144.96 424.626 -145.337 424.626 C -145.714 424.626 -145.966 424.374 -145.966 423.997 C -145.966 401.791 -146.847 377.447 -148.482 374.491 C -150.118 377.447 -150.999 401.791 -150.999 423.997 C -150.999 424.374 -151.25 424.626 -151.628 424.626 Z" style=""/>
</svg>