<?xml version="1.0" encoding="utf-8"?>
<!-- Generator: Adobe Illustrator 19.0.0, SVG Export Plug-In . SVG Version: 6.00 Build 0)  -->
<svg version="1.1" id="icons" xmlns="http://www.w3.org/2000/svg" xmlns:xlink="http://www.w3.org/1999/xlink" x="0px" y="0px"
	 viewBox="-239 346 132 102" style="enable-background:new -239 346 132 102;" xml:space="preserve">
<style type="text/css">
	.st0{fill:#2887C2;}
	.st1{fill:#F3714E;}
	.st2{fill:#0A486A;}
</style>
<title>albert-genetics-genomics</title>
<path class="st0" d="M-238,448L-238,448c-0.6,0-1-0.4-1-1c0-0.1,0.2-12.7,1-25c1.3-21.6,3.1-26,5.5-26c0.5,0,1,0.2,1.3,0.6
	c4.1,4.1,4.2,41.6,4.2,49.4h18c0-2.3,0.2-8.2,0.7-14.1c1.2-14,3.4-15.9,5.3-15.9c1.8,0,3.7,1.6,4.9,12.4c0.8-6.8,2.3-12.4,5.1-12.4
	c5.4,0,6,21.7,6,31c0,0.6-0.4,1-1,1s-1-0.4-1-1c0-17.1-2.1-29-4-29s-4,11.9-4,29c0,0.6-0.4,1-1,1l0,0c-0.6,0-1-0.4-1-1
	c-0.2-20.2-2.7-29-4-29s-3.8,8.8-4,29c0,0.6-0.4,1-1,1h-20c-0.6,0-1-0.4-1-1c0.1-28.5-1.6-47-3.5-48.9c-1.9,1.9-4.1,20.4-4.5,48.9
	C-237,447.6-237.4,448-238,448z"/>
<path class="st1" d="M-218,448L-218,448c-0.6,0-1-0.4-1-1c0.2-4.9,1.2-21,6.5-21c0.8,0,1.5,0.4,2.1,0.9c3.1,3.2,3.4,15.2,3.4,19.1
	h18c0-2.8,0.2-11,0.7-19.1c1.2-18.4,3.3-20.9,5.3-20.9c1.9,0,3.7,2.1,4.9,16.5c1.2-14.4,3.2-16.5,5.1-16.5c2,0,4.2,2.5,5.4,20.9
	c0.6,9.9,0.6,20,0.6,20.1c0,0.6-0.4,1-1,1s-1-0.4-1-1c0-20.5-1.8-38.3-4-39c-2.1,0.7-4,18.5-4,39c0,0.6-0.4,1-1,1l0,0
	c-0.6,0-1-0.4-1-1c-0.1-23.1-2.2-38.2-4-39c-1.7,0.8-3.8,15.9-4,39c0,0.6-0.4,1-1,1h-20c-0.6,0-1-0.4-1-1c0.1-4.3-0.4-16.1-2.9-18.7
	c-0.2-0.2-0.4-0.3-0.6-0.3c-2.3,0-4.2,9.8-4.5,19C-217,447.6-217.4,448-218,448z"/>
<path class="st1" d="M-158,448L-158,448c-0.6,0-1-0.4-1-1c0.2-4.9,1.2-21,6.5-21c0.8,0,1.5,0.4,2.1,0.9c1,1.2,1.6,2.5,1.9,4
	c0.1-1.3,0.1-2.7,0.2-4c1.2-18.4,3.3-20.9,5.3-20.9c1.9,0,3.7,2.1,4.9,16.5c1.2-14.4,3.2-16.5,5.1-16.5c2,0,4.2,2.5,5.4,20.9
	c0.6,9.9,0.6,20,0.6,20.1c0,0.6-0.4,1-1,1c-0.6,0-1-0.4-1-1c0-20.5-1.8-38.3-4-39c-2.1,0.7-4,18.5-4,39c0,0.6-0.4,1-1,1l0,0
	c-0.6,0-1-0.4-1-1c-0.1-23.1-2.2-38.2-4-39c-1.7,0.8-3.8,15.7-3.9,38.4c0,0.3,0,0.5,0,0.6c0,0.6-0.4,1-1,1l0,0c-0.6,0-1-0.4-1-1
	c0,0,0-0.1,0-0.4c0-4.6-0.4-15.8-2.9-18.3c-0.2-0.2-0.4-0.4-0.7-0.4c-2.3,0-4.2,9.8-4.5,19C-157,447.6-157.4,448-158,448z"/>
<path class="st0" d="M-168,448L-168,448c-0.6,0-1-0.4-1-1c0-0.1,0.2-12.7,1-25c1.3-21.6,3.1-26,5.5-26c0.5,0,1,0.2,1.3,0.6
	c4.1,4.1,4.2,41.6,4.2,49.4h28c0-3.6,0.2-16.4,0.7-29c1.4-31,3.8-31,5.3-31s3.9,0,5.3,31c0.1,2.4,0.2,4.9,0.3,7.2
	c0.9-4.7,2.3-8.2,4.4-8.2c5.4,0,6,21.7,6,31c0,0.6-0.4,1-1,1s-1-0.4-1-1c0-17.1-2.1-29-4-29s-4,11.9-4,29c0,0.6-0.4,1-1,1l0,0
	c-0.6,0-1-0.4-1-1c-0.1-26.8-1.6-55.6-4-58.8c-2.4,3.3-3.9,32-4,58.8c0,0.6-0.4,1-1,1h-30c-0.6,0-1-0.4-1-1
	c0.1-28.5-1.6-47-3.5-48.9c-1.9,1.9-4.1,20.4-4.5,48.9C-167,447.6-167.4,448-168,448z"/>
<path class="st2" d="M-108,448h-130c-0.6,0-1-0.4-1-1s0.4-1,1-1h130c0.6,0,1,0.4,1,1S-107.4,448-108,448z"/>
<path class="st2" d="M-178,448c-0.6,0-1-0.4-1-1c-0.1-35-1.2-90.7-4-98.4c-2.8,7.7-3.9,63.4-4,98.4c0,0.6-0.4,1-1,1h-30
	c-0.6,0-1-0.4-1-1c0.1-40.7-1.7-65.2-3.5-68.7c-1.9,3.5-4.1,28-4.5,68.7c0,0.6-0.4,1-1,1s-1-0.4-1-1c0-0.2,0.2-17.7,1-35
	c1.6-36,4-36,5.5-36c0.4,0,0.9,0.2,1.2,0.5c4.2,4.2,4.3,56.5,4.3,69.5h28c0-4.9,0.1-27.1,0.7-49c1.4-51,3.6-51,5.3-51
	s3.8,0,5.2,47.1c1.4-27.1,3.4-27.1,4.8-27.1c1.6,0,4.1,0,5.4,41c0.6,19.8,0.6,39.8,0.6,40c0,0.6-0.4,1-1,1s-1-0.4-1-1
	c0-35.3-1.4-74-4-78.7c-2.6,4.7-4,43.4-4,78.7C-177,447.6-177.4,448-178,448z"/>
</svg>
