<?xml version="1.0" encoding="utf-8"?>
<!-- Generator: Adobe Illustrator 19.0.0, SVG Export Plug-In . SVG Version: 6.00 Build 0)  -->
<svg version="1.1" id="icons" xmlns="http://www.w3.org/2000/svg" xmlns:xlink="http://www.w3.org/1999/xlink" x="0px" y="0px"
	 viewBox="-239 331 131.4 131" style="enable-background:new -239 331 131.4 131;" xml:space="preserve">
<style type="text/css">
	.st0{fill:#2887C2;}
	.st1{fill:#F3714E;}
	.st2{fill:#0A486A;}
	.st3{fill:#DAE6E8;}
</style>
<title>albert-genetics-genomics</title>
<path class="st0" d="M-174,380.5c-0.6,0-1-0.4-1-1V373c0-0.6,0.4-1,1-1s1,0.4,1,1v6.5C-173,380.1-173.4,380.5-174,380.5z"/>
<path class="st1" d="M-174,422.1c-0.6,0-1-0.4-1-1v-10.5c0-0.6,0.4-1,1-1s1,0.4,1,1v10.5C-173,421.7-173.4,422.1-174,422.1z"/>
<path class="st2" d="M-188.8,383.3c-0.3,0-0.5-0.1-0.7-0.3l-2.2-2.3c-0.4-0.4-0.3-1.1,0.1-1.4c0.4-0.3,0.9-0.3,1.3,0l2.3,2.2
	c0.4,0.4,0.4,1,0,1.4C-188.2,383.2-188.4,383.3-188.8,383.3L-188.8,383.3z"/>
<path class="st2" d="M-157,415c-0.3,0-0.5-0.1-0.7-0.3l-3.5-3.5c-0.4-0.4-0.3-1.1,0.1-1.4c0.4-0.3,0.9-0.3,1.3,0l3.5,3.5
	c0.4,0.4,0.4,1,0,1.4C-156.5,414.9-156.7,415-157,415z"/>
<path class="st1" d="M-193.5,398h-4.5c-0.6,0-1-0.4-1-1s0.4-1,1-1h4.5c0.6,0,1,0.4,1,1S-192.9,398-193.5,398L-193.5,398z"/>
<path class="st0" d="M-191,415c-0.6,0-1-0.4-1-1c0-0.3,0.1-0.5,0.3-0.7l4.6-4.6c0.4-0.4,1.1-0.3,1.4,0.1c0.3,0.4,0.3,0.9,0,1.3
	l-4.6,4.6C-190.5,414.9-190.7,415-191,415z"/>
<path class="st2" d="M-161.6,385.7c-0.6,0-1-0.4-1-1c0-0.3,0.1-0.5,0.3-0.7l4.6-4.6c0.4-0.4,1.1-0.3,1.4,0.1c0.3,0.4,0.3,0.9,0,1.3
	l-4.6,4.6C-161.1,385.5-161.3,385.6-161.6,385.7z"/>
<path class="st0" d="M-174,363c-0.6,0-1-0.4-1-1v-30c0-0.6,0.4-1,1-1s1,0.4,1,1v30C-173,362.6-173.4,363-174,363z"/>
<path class="st2" d="M-174,453c-0.6,0-1-0.4-1-1v-20c0-0.6,0.4-1,1-1s1,0.4,1,1v20C-173,452.6-173.4,453-174,453z"/>
<path class="st0" d="M-158,442c-0.4,0-0.8-0.3-0.9-0.7l-4.1-11.1c-0.2-0.5,0-1.1,0.6-1.3c0.5-0.2,1.1,0,1.3,0.6c0,0,0,0,0,0.1
	l4.1,11.1c0.2,0.5-0.1,1.1-0.6,1.3C-157.8,442-157.9,442-158,442z"/>
<path class="st2" d="M-186,365.1c-0.4,0-0.8-0.3-0.9-0.7l-10.2-28.2c-0.2-0.5,0-1.1,0.6-1.3c0.5-0.2,1.1,0,1.3,0.6c0,0,0,0,0,0.1
	l10.3,28.2c0.2,0.5-0.1,1.1-0.6,1.3C-185.7,365.1-185.9,365.1-186,365.1z"/>
<path class="st0" d="M-196.5,371.2c-0.3,0-0.6-0.1-0.8-0.4l-15.5-18.4c-0.4-0.4-0.3-1.1,0.1-1.4c0.4-0.4,1.1-0.3,1.4,0.1l15.5,18.4
	c0.4,0.4,0.3,1.1-0.1,1.4C-196,371.1-196.3,371.2-196.5,371.2L-196.5,371.2z"/>
<path class="st2" d="M-132.2,447.8c-0.3,0-0.6-0.1-0.8-0.4l-19.3-23c-0.4-0.4-0.3-1.1,0.1-1.4c0.4-0.4,1.1-0.3,1.4,0.1l19.3,23
	c0.4,0.4,0.3,1.1-0.1,1.4C-131.8,447.7-132,447.8-132.2,447.8L-132.2,447.8z"/>
<path class="st0" d="M-117.7,430.5c-0.2,0-0.3,0-0.5-0.1l-26-15c-0.5-0.3-0.7-0.9-0.4-1.3c0.3-0.5,0.9-0.7,1.3-0.4c0,0,0,0,0.1,0
	l26,15c0.5,0.3,0.6,0.9,0.4,1.4C-117,430.3-117.3,430.5-117.7,430.5L-117.7,430.5z"/>
<path class="st2" d="M-204.3,380.5c-0.2,0-0.3,0-0.5-0.1l-26-15c-0.5-0.3-0.6-0.9-0.3-1.4c0.3-0.4,0.8-0.6,1.3-0.3l26,15
	c0.5,0.3,0.6,0.9,0.4,1.4C-203.6,380.3-203.9,380.5-204.3,380.5L-204.3,380.5z"/>
<path class="st0" d="M-208.4,391.9h-0.2l-29.6-5.2c-0.6-0.1-0.9-0.6-0.8-1.2s0.6-0.9,1.2-0.8l29.5,5.2c0.6,0,1,0.5,0.9,1.1
	C-207.4,391.6-207.9,392-208.4,391.9L-208.4,391.9z"/>
<path class="st2" d="M-110,409.3h-0.2l-29.5-5.2c-0.6-0.1-0.9-0.6-0.8-1.2c0.1-0.6,0.6-0.9,1.2-0.8l29.5,5.2c0.6,0,1,0.5,0.9,1.1
	C-108.9,409-109.4,409.4-110,409.3L-110,409.3z"/>
<path class="st0" d="M-139.5,391.9c-0.6,0-1-0.4-1.1-0.9c0-0.6,0.4-1,0.9-1.1l18-3.2c0.6-0.1,1.1,0.3,1.2,0.8
	c0.1,0.6-0.3,1.1-0.8,1.2l-18,3.2H-139.5z"/>
<path class="st2" d="M-238,409.3c-0.6,0-1-0.4-1.1-0.9c0-0.6,0.4-1,0.9-1.1l29.5-5.2c0.6-0.1,1.1,0.3,1.2,0.8s-0.3,1.1-0.8,1.2
	l-29.6,5.2L-238,409.3z"/>
<path class="st0" d="M-215.8,422.1c-0.6,0-1-0.4-1-1c0-0.4,0.2-0.7,0.5-0.9l11.5-6.6c0.5-0.3,1.1-0.1,1.3,0.4c0.2,0.5,0.1,1-0.3,1.3
	l-11.5,6.6C-215.4,422.1-215.6,422.1-215.8,422.1z"/>
<path class="st2" d="M-143.7,380.5c-0.6,0-1-0.4-1-1c0-0.4,0.2-0.7,0.5-0.9l26-15c0.5-0.3,1.1-0.1,1.3,0.4c0.2,0.5,0.1,1-0.3,1.3
	l-26,15C-143.3,380.5-143.5,380.5-143.7,380.5z"/>
<path class="st0" d="M-151.5,371.2c-0.6,0-1-0.4-1-1c0-0.2,0.1-0.5,0.2-0.6l5.1-6.1c0.4-0.4,1-0.5,1.4-0.1c0.4,0.4,0.5,1,0.1,1.4
	l-5.1,6.1C-150.9,371.1-151.2,371.2-151.5,371.2z"/>
<path class="st2" d="M-209,439.7c-0.6,0-1-0.4-1-1c0-0.2,0.1-0.5,0.2-0.6l12.5-14.9c0.4-0.4,1-0.5,1.4-0.1c0.4,0.4,0.5,1,0.1,1.4
	l-12.5,14.9C-208.4,439.6-208.7,439.7-209,439.7z"/>
<path class="st0" d="M-188.8,438.6c-0.6,0-1-0.4-1-1c0-0.1,0-0.2,0.1-0.3l2.8-7.7c0.2-0.5,0.7-0.8,1.3-0.6s0.8,0.7,0.6,1.3
	c0,0,0,0,0,0.1l-2.8,7.7C-188,438.3-188.3,438.6-188.8,438.6z"/>
<path class="st2" d="M-162,365.1c-0.6,0-1-0.4-1.1-0.9c0-0.1,0-0.3,0.1-0.4l8.6-23.4c0.2-0.5,0.8-0.8,1.3-0.6
	c0.5,0.2,0.7,0.7,0.6,1.2l-8.5,23.4C-161.2,364.9-161.6,365.1-162,365.1z"/>
<path class="st1" d="M-164.1,452.2c-0.5,0-0.9-0.3-1-0.8l-3.5-19.7c-0.1-0.6,0.3-1.1,0.8-1.2c0.6-0.1,1.1,0.3,1.2,0.8l3.5,19.8
	c0.1,0.5-0.3,1.1-0.8,1.2c0,0,0,0,0,0L-164.1,452.2z"/>
<path class="st1" d="M-179.7,363.5c-0.5,0-0.9-0.3-1-0.8l-1.8-10c-0.1-0.6,0.3-1.1,0.8-1.2c0.6-0.1,1.1,0.3,1.2,0.8l1.8,10
	c0.1,0.5-0.3,1.1-0.8,1.2c0,0,0,0,0,0L-179.7,363.5z"/>
<path class="st1" d="M-150.2,438.6c-0.4,0-0.7-0.2-0.9-0.5l-5.9-10.3c-0.3-0.5-0.2-1.1,0.3-1.4c0.5-0.3,1.1-0.2,1.4,0.3
	c0,0,0,0,0,0.1l5.9,10.2c0.3,0.5,0.1,1.1-0.4,1.4C-149.9,438.5-150,438.5-150.2,438.6L-150.2,438.6z"/>
<path class="st1" d="M-191.4,367.2c-0.4,0-0.7-0.2-0.9-0.5l-7.2-12.5c-0.3-0.5-0.1-1.1,0.4-1.3c0.5-0.2,1-0.1,1.3,0.3l7.2,12.5
	c0.3,0.5,0.1,1.1-0.4,1.4C-191.1,367.1-191.3,367.2-191.4,367.2L-191.4,367.2z"/>
<path class="st1" d="M-123.8,439.8c-0.2,0-0.5-0.1-0.6-0.2l-23-19.3c-0.4-0.4-0.5-1-0.1-1.4c0.4-0.4,1-0.5,1.4-0.1l23,19.3
	c0.4,0.4,0.5,1,0.1,1.4C-123.3,439.6-123.5,439.8-123.8,439.8L-123.8,439.8z"/>
<path class="st1" d="M-201.3,374.8c-0.2,0-0.5-0.1-0.6-0.2l-22.1-18.5c-0.4-0.4-0.5-1-0.1-1.4c0.4-0.4,1-0.5,1.4-0.1l0,0l22.1,18.5
	c0.4,0.4,0.5,1,0.1,1.4C-200.7,374.7-201,374.8-201.3,374.8z"/>
<path class="st1" d="M-112.6,420.2c-0.1,0-0.2,0-0.3-0.1l-28.2-10.3c-0.5-0.2-0.8-0.8-0.6-1.3c0.2-0.5,0.7-0.7,1.2-0.6l28.2,10.3
	c0.5,0.2,0.8,0.8,0.6,1.3C-111.8,420-112.1,420.2-112.6,420.2z"/>
<path class="st1" d="M-207.3,385.8c-0.1,0-0.2,0-0.3-0.1l-10-3.7c-0.5-0.2-0.8-0.7-0.6-1.3s0.7-0.8,1.3-0.6c0,0,0,0,0.1,0l10,3.6
	c0.5,0.2,0.8,0.8,0.6,1.3C-206.5,385.5-206.9,385.7-207.3,385.8L-207.3,385.8z"/>
<path class="st1" d="M-108.6,398h-30c-0.6,0-1-0.4-1-1s0.4-1,1-1h30c0.6,0,1,0.4,1,1S-108.1,398-108.6,398z"/>
<path class="st1" d="M-209.6,398h-22.6c-0.6,0-1-0.4-1-1s0.4-1,1-1h22.6c0.6,0,1,0.4,1,1S-209.1,398-209.6,398z"/>
<path class="st1" d="M-140.8,386c-0.6,0-1-0.4-1-1c0-0.4,0.3-0.8,0.7-0.9l28.2-10.3c0.5-0.2,1.1,0,1.3,0.6c0.2,0.5,0,1.1-0.6,1.3
	c0,0,0,0-0.1,0l-28.2,10.3C-140.5,386-140.6,386-140.8,386z"/>
<path class="st1" d="M-234.7,420.2c-0.6,0-1-0.4-1-1c0-0.4,0.3-0.8,0.7-0.9l27.9-10.1c0.5-0.2,1.1,0.1,1.3,0.6
	c0.2,0.5-0.1,1.1-0.6,1.3l0,0l-27.9,10.1C-234.5,420.2-234.6,420.2-234.7,420.2z"/>
<path class="st1" d="M-146.8,375.5c-0.6,0-1-0.4-1-1c0-0.3,0.1-0.6,0.4-0.8l23-19.3c0.4-0.3,1.1-0.3,1.4,0.2
	c0.3,0.4,0.3,1.1-0.2,1.4l-23,19.3C-146.4,375.4-146.6,375.5-146.8,375.5z"/>
<path class="st1" d="M-223.4,439.8c-0.6,0-1-0.4-1-1c0-0.3,0.1-0.6,0.4-0.8l22.8-19.1c0.4-0.4,1.1-0.3,1.4,0.1
	c0.4,0.4,0.3,1.1-0.1,1.4l-22.8,19.1C-223,439.7-223.2,439.8-223.4,439.8z"/>
<path class="st1" d="M-156.1,367.7c-0.6,0-1-0.4-1-1c0-0.2,0-0.4,0.1-0.5l9.6-16.6c0.3-0.5,0.9-0.7,1.3-0.4c0.5,0.3,0.7,0.9,0.4,1.3
	c0,0,0,0,0,0.1l-9.6,16.6C-155.5,367.5-155.8,367.7-156.1,367.7z"/>
<path class="st1" d="M-206.1,454.3c-0.6,0-1-0.4-1-1c0-0.2,0-0.4,0.1-0.5l14.9-25.8c0.3-0.5,0.9-0.7,1.3-0.4
	c0.5,0.3,0.7,0.9,0.4,1.3c0,0,0,0,0,0.1l-14.9,25.8C-205.5,454.1-205.8,454.3-206.1,454.3z"/>
<path class="st1" d="M-167.6,363.5h-0.2c-0.5-0.1-0.9-0.6-0.8-1.2c0,0,0,0,0,0l5.2-29.6c0.1-0.6,0.6-0.9,1.2-0.8s0.9,0.6,0.8,1.2
	l0,0l-5.2,29.5C-166.7,363.2-167.1,363.5-167.6,363.5z"/>
<path class="st1" d="M-184.9,462h-0.2c-0.5-0.1-0.9-0.6-0.8-1.2c0,0,0,0,0,0l5.2-29.5c0.1-0.6,0.6-0.9,1.2-0.8
	c0.6,0.1,0.9,0.6,0.8,1.2l-5.2,29.5C-184,461.7-184.4,462-184.9,462z"/>
<path class="st2" d="M-174,433c-19.9,0-36-16.1-36-36s16.1-36,36-36s36,16.1,36,36S-154.1,433-174,433z M-174,363
	c-18.8,0-34,15.2-34,34s15.2,34,34,34s34-15.2,34-34S-155.2,363-174,363z"/>
<path class="st3" d="M-174,422c-13.8,0-25-11.2-25-25s11.2-25,25-25c13.8,0,25,11.2,25,25l0,0C-149,410.8-160.2,422-174,422z
	 M-174,374c-12.7,0-23,10.3-23,23s10.3,23,23,23s23-10.3,23-23l0,0C-151,384.3-161.3,374.1-174,374z"/>
</svg>
